<?xml version="1.0" standalone="no"?>
<!DOCTYPE svg PUBLIC "-//W3C//DTD SVG 20010904//EN"
 "http://www.w3.org/TR/2001/REC-SVG-20010904/DTD/svg10.dtd">
<svg version="1.0" xmlns="http://www.w3.org/2000/svg"
 width="96.000000pt" height="96.000000pt" viewBox="0 0 96.000000 96.000000"
 preserveAspectRatio="xMidYMid meet">

<g transform="translate(0.000000,96.000000) scale(0.100000,-0.100000)"
fill="#000000" stroke="none">
<path d="M698 722 c-31 -19 -36 -40 -12 -49 18 -7 36 15 29 34 -2 7 1 12 7 10
6 -1 13 4 15 11 6 16 -7 15 -39 -6z"/>
<path d="M460 640 c0 -5 -10 -10 -22 -10 -19 0 -20 -2 -8 -10 8 -5 30 -7 48
-4 21 4 32 2 32 -5 0 -7 4 -10 9 -7 13 8 61 -33 61 -52 0 -14 2 -15 9 -3 7 11
10 7 14 -15 l4 -29 2 29 c2 40 -68 111 -100 101 -14 -5 -19 -4 -15 4 4 7 -1
11 -13 11 -12 0 -21 -4 -21 -10z"/>
<path d="M307 623 c-4 -6 -19 -8 -34 -6 -26 4 -27 3 -8 -9 13 -8 19 -21 17
-32 -3 -12 1 -17 10 -14 7 3 12 13 11 23 -1 12 2 14 10 6 6 -6 18 -11 27 -11
13 1 13 2 -1 13 -9 7 -18 19 -21 27 -3 9 -7 10 -11 3z"/>
<path d="M395 610 c3 -5 2 -10 -3 -10 -15 0 -83 -71 -77 -81 4 -5 -8 -17 -25
-27 -59 -32 -81 -53 -78 -76 2 -13 10 -20 20 -20 10 1 15 -2 12 -7 -7 -11 7
-11 25 0 11 7 9 10 -8 16 -11 3 -21 11 -21 16 0 6 10 3 22 -5 12 -9 38 -17 58
-17 l35 -2 -35 -7 c-29 -6 -21 -8 40 -10 63 -2 68 -4 35 -9 l-40 -7 35 -8 c19
-4 51 -8 70 -9 44 -1 176 53 158 65 -11 6 -11 8 0 8 7 0 10 5 7 10 -3 6 -11
10 -16 10 -6 0 -7 -5 -3 -12 5 -7 2 -9 -8 -5 -18 6 -89 -13 -84 -22 3 -3 -30
-7 -72 -7 -69 -1 -71 -1 -27 6 l50 7 -62 1 c-72 2 -113 15 -113 37 0 8 14 29
31 47 21 23 27 26 20 11 -6 -12 -16 -25 -21 -28 -6 -3 -10 -14 -9 -23 0 -10 3
-12 6 -5 4 10 9 10 24 -1 11 -8 28 -12 38 -9 18 4 18 6 0 43 -22 45 -23 54 -8
44 7 -4 9 0 5 14 -5 14 1 26 23 45 24 20 27 26 15 31 -22 8 -26 8 -19 -4z
m-15 -33 c0 -2 -15 -16 -32 -33 l-33 -29 29 33 c28 30 36 37 36 29z m220 -167
c8 -5 11 -10 5 -10 -5 0 -17 5 -25 10 -8 5 -10 10 -5 10 6 0 17 -5 25 -10z"/>
<path d="M595 600 c10 -11 20 -20 23 -20 3 0 -3 9 -13 20 -10 11 -20 20 -23
20 -3 0 3 -9 13 -20z"/>
<path d="M444 586 c-55 -25 -66 -107 -20 -145 24 -20 106 -7 129 20 24 29 21
73 -5 103 -29 32 -64 39 -104 22z"/>
<path d="M668 583 c6 -2 18 -2 25 0 6 3 1 5 -13 5 -14 0 -19 -2 -12 -5z"/>
<path d="M695 569 c-16 -4 -39 -6 -51 -3 -20 5 -23 2 -26 -33 -2 -28 -7 -37
-18 -35 -8 2 -12 0 -8 -4 4 -4 2 -14 -5 -23 -10 -14 -10 -14 5 -3 9 8 21 11
27 8 14 -9 50 26 55 54 2 19 9 25 28 25 14 0 25 5 25 12 0 7 -1 13 -1 12 -1 0
-14 -5 -31 -10z"/>
<path d="M681 547 c2 -1 13 -9 24 -17 19 -14 19 -14 6 3 -7 9 -18 17 -24 17
-6 0 -8 -1 -6 -3z"/>
<path d="M676 484 c-24 -23 -20 -53 9 -66 23 -10 29 -9 48 12 12 13 14 18 5
11 -12 -9 -18 -10 -18 -2 0 6 -7 11 -15 11 -20 0 -19 16 1 24 22 8 26 8 19 -4
-3 -5 -1 -10 4 -10 18 0 12 19 -8 30 -25 13 -27 13 -45 -6z"/>
<path d="M650 379 c0 -5 5 -7 10 -4 6 3 10 8 10 11 0 2 -4 4 -10 4 -5 0 -10
-5 -10 -11z"/>
<path d="M360 274 c0 -8 6 -11 15 -8 8 4 15 9 15 13 0 4 -7 8 -15 8 -8 0 -15
-6 -15 -13z"/>
<path d="M411 274 c0 -11 3 -14 6 -6 3 7 2 16 -1 19 -3 4 -6 -2 -5 -13z"/>
<path d="M431 274 c0 -11 3 -14 6 -6 3 7 2 16 -1 19 -3 4 -6 -2 -5 -13z"/>
<path d="M457 284 c-8 -8 1 -24 14 -24 5 0 9 7 9 15 0 15 -12 20 -23 9z"/>
<path d="M501 273 c0 -11 3 -13 6 -5 2 6 10 9 15 6 7 -4 8 -2 4 4 -11 18 -26
14 -25 -5z"/>
<path d="M540 275 c0 -6 7 -12 15 -12 8 0 15 6 15 12 0 6 -7 12 -15 12 -8 0
-15 -6 -15 -12z"/>
</g>
</svg>
